PathFileType	4	(X/Y/Z)	D:\TRACE\spotREDO_2-26-24\spot_justArm_Motion_3_1-v60.trc
DataRate	CameraRate	NumFrames	NumMarkers	Units	OrigDataRate	OrigDataStartFrame	OrigNumFrames
100.00	100.00	      17	9	mm	100.00	2626	      7000
Frame#	Time	front left toe			Front right toe			aft left toe			aft right toe			Arm			FL body			FR body			AL Body			AR Body			
		X1	Y1	Z1	X2	Y2	Z2	X3	Y3	Z3	X4	Y4	Z4	X5	Y5	Z5	X6	Y6	Z6	X7	Y7	Z7	X8	Y8	Z8	X9	Y9	Z9	

2626	26.250	-228.75592	37.41506	-154.74944	193.03490	37.57832	-154.34886	-207.83049	-20.87413	473.20932	206.21042	-14.95256	435.74069	-55.86280	751.39581	-769.57745	-88.34204	583.86292	-206.81622	67.94408	587.63135	-213.63004	-57.63534	501.57901	672.31201	90.70956	501.36942	668.34753	
2627	26.260	-229.27788	37.52873	-154.85025	192.85326	37.63929	-154.28136	-208.10416	-20.83278	473.19754	205.86945	-15.03020	435.68521	-54.39604	751.41956	-768.08136	-88.59644	583.71564	-206.90295	67.63061	587.55676	-213.73451	-57.93702	501.82718	672.27710	90.49274	501.54358	668.32904	
2628	26.270	-229.88579	37.74454	-154.78110	192.66824	37.72136	-154.16280	-208.43077	-20.76624	473.14685	205.63182	-14.92157	435.66162	-54.75662	751.48425	-768.08862	-88.77119	583.66541	-206.91824	67.34825	587.43921	-213.78410	-58.10109	502.02139	672.23682	90.36435	501.68250	668.31116	
2629	26.280	-230.20070	37.77015	-154.82530	192.45490	37.77607	-154.02318	-208.84834	-20.67304	473.07767	204.91383	-15.04759	435.51920	-56.84575	751.00220	-769.68909	-89.04548	583.56909	-206.88110	67.13251	587.30457	-213.78036	-58.25362	502.18442	672.20428	90.17700	501.90393	668.27454	
2630	26.290	-230.38844	37.71286	-154.75465	192.08002	37.69363	-154.07610	-209.22411	-20.64921	472.98358	204.48010	-15.10822	435.48947	-57.04376	750.88367	-769.47119	-89.27209	583.39429	-206.96637	66.98812	587.22675	-213.83482	-58.54575	502.36386	672.20734	89.90991	502.04333	668.24475	
2631	26.300	-230.55525	37.58602	-154.82605	191.86635	37.67244	-154.13776	-209.73665	-20.42095	472.74359	204.32178	-15.07654	435.47961	-57.05360	750.64398	-769.16406	-89.51094	583.42346	-207.04079	66.77350	587.26117	-213.86493	-58.80509	502.45786	672.16895	89.55342	502.13992	668.19568	
2632	26.310	-230.84062	37.56133	-154.80737	191.53697	37.66568	-154.26590	-210.00244	-20.39054	472.77463	204.19577	-14.92959	435.53500	-57.15268	750.23425	-769.27332	-89.74648	583.63367	-206.95387	66.40595	587.47888	-213.90903	-59.01584	502.43463	672.13800	89.23737	502.20959	668.14404	
2633	26.320	-231.15396	37.90315	-155.05443	191.15126	37.66143	-154.36208	-210.27405	-20.38438	472.78592	203.92517	-14.77397	435.46555	-57.50873	749.65338	-769.37311	-89.99020	583.87781	-207.02766	66.12466	587.65277	-213.94841	-59.29235	502.50620	672.12311	89.13872	502.19986	668.14929	
2634	26.330	-231.62625	37.95460	-155.12300	190.70045	37.58691	-154.44316	-210.56348	-20.39022	472.80905	203.64742	-14.70772	435.44403	-56.34845	748.63525	-768.03015	-90.32124	583.87610	-207.04903	65.95016	587.66083	-213.97926	-59.56217	502.64151	672.14923	88.95972	502.26688	668.14935	
2635	26.340	-231.87196	37.87461	-155.03911	190.17766	37.49085	-154.53246	-210.81143	-20.44091	472.84171	203.32211	-14.60352	435.57245	-58.54059	746.99316	-769.93964	-90.53747	583.62537	-207.08656	65.54786	587.37555	-214.05623	-59.73048	502.88135	672.18665	88.64439	502.50555	668.12823	
2636	26.350	-232.02800	37.64570	-154.81445	190.00613	37.50902	-154.51994	-211.16214	-20.41304	472.81601	203.09703	-14.46373	435.65952	-58.81317	745.31384	-770.15063	-90.91956	583.26868	-207.20860	65.17741	586.91431	-214.18335	-59.83150	503.15421	672.22473	88.60319	502.70102	668.14111	
2637	26.360	-232.34215	37.34692	-154.82498	189.77489	37.44069	-154.62642	-211.40147	-20.33152	472.75882	202.74773	-14.49867	435.57922	-58.89836	743.79651	-770.07275	-90.95061	582.93805	-207.28578	64.96395	586.64734	-214.20200	-60.09228	503.50739	672.20898	88.32486	503.05679	668.12994	
2638	26.370	-232.61301	37.29570	-154.80089	189.19554	37.24384	-154.65752	-211.66849	-20.19416	472.79330	202.15672	-14.66653	435.45792	-59.17647	742.50433	-770.16968	-91.05814	582.71442	-207.35329	64.89520	586.31122	-214.16510	-60.38125	503.82489	672.13074	88.06249	503.38904	668.10223	
2639	26.380	-232.79562	37.07846	-154.87627	189.39256	37.40935	-154.52118	-211.97903	-20.06376	472.80356	201.82750	-14.71847	435.45511	-59.29881	741.10297	-770.15631	-91.49899	582.28711	-207.56728	64.72676	585.96863	-214.22191	-60.17817	503.99695	671.93054	87.81764	503.76584	668.06201	
2640	26.390	-233.06081	36.99722	-154.93697	188.91463	37.25609	-154.57848	-212.28635	-20.01945	472.82913	201.30812	-14.62993	435.40146	-59.52424	740.21375	-770.37427	-91.82244	582.02185	-207.63551	64.40084	585.67841	-214.32343	-60.79823	504.42908	672.10040	87.49925	504.02448	667.99670	
2641	26.400	-233.38046	36.97898	-154.97910	188.32784	37.05451	-154.69569	-212.60587	-19.89573	472.82266	201.15976	-14.48113	435.24258	-57.81337	739.33453	-768.80334	-92.05399	581.69434	-207.70624	64.11782	585.42639	-214.37817	-61.12506	504.73907	672.08142	87.13867	504.22681	667.94220	
2642	26.410	-234.00868	37.21384	-154.92096	188.44759	37.28661	-154.50414	-212.77072	-19.96689	472.83502	201.11224	-14.39879	435.25766	-59.98880	738.70441	-770.45026	-92.23789	581.58362	-207.64168	63.79770	585.18683	-214.46837	-61.52250	505.08771	672.05682	86.88726	504.49329	667.97369	
